<?xml version="1.0" encoding="UTF-8"?><svg id="Layer_1" xmlns="http://www.w3.org/2000/svg" viewBox="0 0 500 500"><path d="m401.7393,122.0667l-4.7917,3.199c-1.5882,1.084-3.1608,2.1938-4.731,3.3098-1.6687,1.1775-3.3235,2.3975-4.7877,3.8123-3.9006,3.7832-7.6605,7.7163-11.391,11.6648l-11.1376,11.8755c-4.5597,4.874-9.1528,9.7134-13.6115,14.6597-2.2645,2.4453-4.4374,4.9595-6.6603,7.4355-2.1555,2.5234-4.3654,5.0117-6.4554,7.5776-1.2729,1.5403-3.0023,2.7375-4.6528,3.9475-1.5988,1.1445-3.8455.9512-6.2762.0513-3.5443-1.3074-5.8921-4.5356-4.8685-7.3057.6424-1.7488,1.8351-3.2869,3.1757-4.5508,6.0826-5.9124,11.3977-12.3013,16.1345-19.314,1.2841-1.9561,2.5274-4.0869,4.4246-5.3884,6.0674-4.1233,10.3751-9.9719,15.9636-14.5254,2.0665-1.6951,4.0345-3.4976,6.015-5.29,1.9615-1.8115,3.9299-3.6187,5.9945-5.3147,7.3287-6.0859,14.9033-11.865,22.6097-17.4524,3.0663-2.2363,6.6124-3.5476,10.9041-3.1084,1.9774.2065,3.8915,2.9141,3.0396,4.5134-1.1974,2.2854-2.7325,4.2681-4.3531,6.136-1.335,1.5283-3.1141,2.582-4.6732,3.8826.0433.0623.0836.1196.129.1848Z" fill="#fec018"/><path d="m389.0132,139.6985c1.1516-3.9824,2.4247-7.9631,3.932-11.9287.8026-2.104,1.6561-4.1909,2.3719-6.3516,1.2236-3.7349,2.6234-7.5044,4.6245-11.1582,1.9713-3.6506,4.4271-7.2129,7.5231-10.3892l6.6263,12.5618c-3.8489,1.0422-7.7179,2.0188-11.6119,2.8848-13.6265,3.0222-27.4459,5.1377-41.3047,6.762-2.0905.252-4.2686-.0671-6.3924-.3977-2.0367-.3281-3.5131-2.0713-4.5519-4.4399-1.5102-3.4536-.7457-7.3982,1.8859-8.592,1.6678-.7629,3.5535-.9778,5.3658-.9724,8.3425.0029,16.5414-1.3472,24.4749-3.9531,2.1913-.7151,4.4202-1.699,6.6868-1.5952,7.2521.3088,14.0591-2.0925,21.115-3.0061.4382-.0601.8766-.1201,1.318-.1807l1.054-.1443c3.4465-.4727,6.6236,1.9385,7.0961,5.385.313,2.2834-.6486,4.4546-2.3297,5.7932-3.1186,2.4702-5.4254,6.0549-7.5709,9.8374-4.2034,7.4351-6.8861,16.344-8.9091,25.4561-.8137,3.6436-2.4199,7.0063-5.7938,9.7717-1.5612,1.2666-4.8307.7249-5.3339-1.0688-.7208-2.5317-1.0381-5.1697-1.0571-7.7832-.0156-2.1514.5941-4.2773.9984-6.4312-.0731-.02-.1407-.0386-.2173-.0596Z" fill="#fec018"/><path d="m121.0466,377.1082c3.1265-2.3396,6.2888-4.656,9.3369-7.114,1.6309-1.2866,3.2612-2.5942,4.6664-4.1143,1.8903-2.0127,3.7299-4.0725,5.5447-6.1528,1.8373-2.0581,3.6069-4.1777,5.3958-6.2749l10.593-12.6785c4.3113-5.2258,8.643-10.429,12.8361-15.7461,4.1969-5.312,8.3463-10.6655,12.3124-16.1541,1.2087-1.6462,2.8657-2.9978,4.4761-4.3408,1.556-1.2742,3.8253-1.2341,6.3098-.4854,3.6213,1.0889,6.1347,4.2017,5.2584,7.0498-.5576,1.7944-1.6534,3.4248-2.9278,4.7925-5.7507,6.3843-10.7274,13.2195-15.0704,20.6604-1.1833,2.064-2.2905,4.3289-4.1428,5.7698-5.864,4.6208-9.9082,10.8201-15.3182,15.7959-2.0008,1.8501-3.8997,3.7981-5.8158,5.7327-1.8927,1.9563-3.8047,3.8958-5.8093,5.7368-7.1281,6.5881-14.5471,12.8333-22.0748,18.9009-2.9924,2.4329-6.5052,3.9526-10.8528,3.7935-2.0059-.0806-4.0723-2.6733-3.2827-4.3401,1.1095-2.374,2.5692-4.4927,4.1379-6.46,1.2877-1.6184,3.0295-2.8076,4.5648-4.1929-.0463-.0601-.0892-.1157-.1378-.1785Z" fill="#fec018"/><path d="m137.0556,358.8008c-1.4105,4.2878-3.0494,8.5115-4.9446,12.6404-1.0034,2.1907-2.0801,4.3501-3.0059,6.5762-1.596,3.8538-3.3805,7.6855-5.5812,11.3452-2.1895,3.6611-4.7019,7.1836-7.556,10.4668l-7.1561-12.2087c4.0799-1.2295,8.1836-2.3892,12.3177-3.4316,14.4891-3.645,29.2199-6.3035,44.0134-8.3782,2.2313-.3203,4.5647-.0688,6.8399.197,2.1823.2666,3.7843,1.9685,4.9264,4.3079,1.6603,3.4114.8953,7.3816-1.9008,8.6538-1.7719.8137-3.7838,1.0864-5.72,1.1387-8.9129.262-17.6507,1.9053-26.0779,4.8308-2.3281.802-4.691,1.8794-7.1108,1.8696-7.7426-.0078-14.963,2.7061-22.4669,3.9622-.4598.0801-.9197.1602-1.3828.2407l-.9567.1667c-3.4349.5981-6.7045-1.7012-7.3029-5.1362-.3822-2.1941.4499-4.3491,1.9733-5.7551,3.4909-3.1729,6.217-7.135,8.8196-11.1814,5.0783-7.894,8.7245-17.0278,11.1619-26.595.9671-3.8223,2.6663-7.2974,6.0016-10.3328,1.5595-1.3909,4.8427-.95,5.3448,1.0159.364,1.387.6207,2.8059.7527,4.2371.1559,1.4312.196,2.8733.1446,4.3062-.0212,1.1787-.2267,2.3484-.4983,3.5112-.2585,1.1636-.5632,2.3206-.8491,3.4814.0718.0239.1384.0461.2138.0713Z" fill="#fec018"/><path d="m386.1164,389.8933l-7.1287-8.4377c-1.2717-1.4744-2.5053-2.9954-3.935-4.3037-3.8428-3.4641-7.6667-6.9587-11.4357-10.5188-3.7704-3.5586-7.4468-7.22-10.9862-11.0115-4.3234-4.6997-8.5308-9.511-12.5666-14.4644-4.0394-4.95-7.9764-9.9846-11.7858-15.1135-1.1632-1.5374-1.8787-3.4331-2.5397-5.3047-.6362-1.792.1907-3.8496,1.7601-5.8796,2.2888-2.9543,6.0305-4.3501,8.2457-2.8704,1.4126.9326,2.4172,2.342,3.2417,3.7749,3.7278,6.6489,8.5872,12.4758,14.3602,17.4692,1.5856,1.3865,3.4246,2.657,4.3549,4.5149,2.9695,5.9578,8.0633,10.158,11.9877,15.334,1.4529,1.9348,3.0477,3.7512,4.6878,5.5264,1.6224,1.7922,3.2922,3.541,4.8884,5.3582,5.6896,6.4846,11.463,12.9246,17.4865,19.1423,2.3892,2.4968,4.0624,5.4802,4.278,9.6455.0929,1.9224-2.1494,4.3613-3.8175,3.8711-2.3583-.6931-4.5789-1.7275-6.5771-2.9976-1.6467-1.0413-2.9213-2.5698-4.3533-3.8872-.0557.0513-.1072.0991-.1653.1526Z" fill="#fec018"/><path d="m408.7632,350.4956c-1.0843,3.3494-2.0778,6.7764-2.726,10.2908-.1976.9287-.317,1.8694-.4511,2.8103-.1373.9409-.1982,1.8882-.1655,2.8342.2037,8.9985,2.0121,17.8276,4.723,26.1992,1.2801,3.9536-.887,8.196-4.8405,9.4763-1.2861.4165-2.6028.468-3.8381.2122l-.5864-.125-3.3061-.6968c-3.0922-.6274-6.1978-1.1768-9.3127-1.6655-3.1188-.4668-6.248-.8567-9.3856-1.175-3.1402-.2917-6.287-.512-9.4391-.6406-3.1525-.1064-6.3082-.1392-9.4625-.0642-1.9007.062-3.8456-.4172-5.7755-.8455-1.8445-.4309-3.1797-2.1782-4.1648-4.5781-1.4435-3.4822-.7273-7.4006,2.0159-8.5491,1.7253-.6968,3.6744-.8391,5.5192-.6838,8.4937.635,16.7892.7214,25.3387.4204,2.3553-.0896,4.8633-.3396,7.0403.5083,4.757,1.8442,9.6447,2.6946,14.4867,3.9255l-8.2144,8.4788c-.2994-1.1313-.5899-2.2654-.8551-3.4041-.2646-1.1387-.4303-2.2991-.5944-3.4548-.681-5.4849-1.5669-10.9465-1.551-16.46.0323-9.8142,1.6082-19.519,4.3928-28.76,1.1473-3.6753,3.3073-6.8752,7.1695-8.7568,1.7647-.8704,4.8148.4377,5.0016,2.1426.2398,2.4207.2152,4.7781.0129,7.0439-.067.9358-.2921,1.8367-.5499,2.7356-.2252.9065-.4946,1.8081-.6979,2.7192.0727.0208.1401.04.2161.062Z" fill="#fec018"/><path d="m132.845,116.7363l7.572,7.9065c1.3486,1.3804,2.6649,2.8064,4.1602,4.0115,2.0112,1.5903,4.0158,3.1907,6.0093,4.8069,2.0106,1.5974,3.9866,3.2361,5.9656,4.8748,3.9547,3.2812,7.8217,6.6716,11.5596,10.2014,4.5709,4.3784,9.0355,8.8738,13.3327,13.5271,4.304,4.6462,8.5078,9.387,12.5908,14.2292,1.2446,1.4507,2.0652,3.2852,2.829,5.1003.7348,1.7378.029,3.8342-1.4174,5.9514-2.1099,3.0813-5.7534,4.7104-8.0394,3.3879-1.4575-.8325-2.5353-2.1653-3.437-3.532-4.0836-6.3516-9.2466-11.814-15.2725-16.384-1.6548-1.2708-3.5582-2.4065-4.5881-4.1902-3.2957-5.7148-8.5981-9.5459-12.7996-14.4199-1.554-1.8257-3.2466-3.5195-4.9783-5.1731-1.7152-1.6716-3.4781-3.2935-5.1678-4.9929-6.0292-6.0581-12.1389-12.0679-18.4818-17.8428-2.5175-2.3213-4.3529-5.1743-4.8095-9.3018-.2044-1.9053,1.879-4.4812,3.5635-4.106,2.3815.5303,4.6454,1.4102,6.7041,2.5374,1.6959.9243,3.0496,2.3591,4.5494,3.571.0522-.0549.1006-.1057.1552-.1628Z" fill="#fec018"/><path d="m111.607,155.7183c.9932-3.335,1.8374-6.752,2.3929-10.2432.2433-1.8503.5317-3.73.3904-5.5979-.5452-8.4434-2.6168-16.6589-5.5754-24.3818-1.4731-3.8452.4499-8.1565,4.295-9.6296,1.2245-.469,2.4962-.5938,3.7086-.4216l.7117.1047c1.5534.2261,3.0978.4932,4.6528.7014,6.228.9102,12.4976,1.5237,18.7844,1.8301,6.2872.3057,12.5933.2698,18.8793-.1228,1.8932-.1387,3.8514.2676,5.7911.626,1.8545.3611,3.2475,2.0654,4.3108,4.4287,1.5565,3.4307.9795,7.3713-1.6959,8.6118-1.6841.7568-3.6089.9717-5.4426.8848-8.4391-.3022-16.6661-.0422-25.116.6992-2.3282.2156-4.7975.5952-6.9957-.1384-5.2742-1.7412-10.6603-2.2551-15.9887-3.3672l7.7654-8.8623c.5212,1.7607,1.0869,3.5105,1.3809,5.3262,1.0055,5.4329,2.179,10.8403,2.4188,16.3467.4337,9.8-.8073,19.5579-3.3623,28.8403-1.0679,3.6897-3.1459,6.9314-6.9752,8.8635-1.7462.8943-4.8176-.3635-5.04-2.05-.2911-2.3967-.3171-4.7292-.177-6.9751.0404-.9272.2568-1.8188.4753-2.7163.202-.9004.4485-1.7969.629-2.7012-.0732-.0188-.1411-.0364-.2177-.0559Z" fill="#fec018"/></svg>