<?xml version="1.0" encoding="UTF-8" standalone="no"?>
<svg
   id="Layer_1"
   viewBox="0 0 500 500"
   version="1.1"
   sodipodi:docname="arrow, hand drawn, scribble, doodle, down, loop, point, 77.svg"
   inkscape:version="1.2.1 (9c6d41e, 2022-07-14)"
   xmlns:inkscape="http://www.inkscape.org/namespaces/inkscape"
   xmlns:sodipodi="http://sodipodi.sourceforge.net/DTD/sodipodi-0.dtd"
   xmlns="http://www.w3.org/2000/svg"
   xmlns:svg="http://www.w3.org/2000/svg">
  <defs
     id="defs209" />
  <sodipodi:namedview
     id="namedview207"
     pagecolor="#ffffff"
     bordercolor="#000000"
     borderopacity="0.25"
     inkscape:showpageshadow="2"
     inkscape:pageopacity="0.0"
     inkscape:pagecheckerboard="0"
     inkscape:deskcolor="#d1d1d1"
     showgrid="false"
     inkscape:zoom="0.472"
     inkscape:cx="248.94068"
     inkscape:cy="250"
     inkscape:window-width="1512"
     inkscape:window-height="916"
     inkscape:window-x="0"
     inkscape:window-y="38"
     inkscape:window-maximized="0"
     inkscape:current-layer="Layer_1" />
  <g
     id="g213"
     transform="rotate(90,251.16556,250.68557)">
    <path
       d="m 315.323,322.6715 c -5.4954,0.7613 -10.9902,1.8936 -16.4099,3.3698 -2.6923,0.7252 -5.4309,1.5606 -8.1517,2.4391 -2.7147,0.8731 -5.3961,1.8032 -8.0345,2.8031 -5.287,1.9821 -10.4043,4.2494 -15.2455,6.8853 -4.8317,2.6412 -9.4406,5.5981 -13.5424,9.0608 -1.0096,0.8794 -2.0594,1.723 -3.0027,2.6634 l -1.4541,1.3756 -1.3715,1.446 c -0.9769,1.0086 -1.6829,1.8183 -2.4004,2.7791 -0.3522,0.4759 -0.719,0.9412 -1.0288,1.4526 -0.3253,0.4992 -0.6639,0.9913 -0.9406,1.518 -1.1896,2.0574 -2.1174,4.2541 -2.6442,6.367 -0.5339,2.1102 -0.6265,4.1192 -0.306,5.6404 0.2888,1.5492 1.0261,2.5295 2.1168,3.5048 1.0757,0.8796 2.8489,1.584 5.1218,1.9732 1.1277,0.1994 2.3674,0.321 3.6703,0.4024 l 4.0443,0.0771 c 1.3503,0.0753 2.703,-0.0538 4.0559,-0.1252 1.3524,-0.0878 2.7094,-0.1073 4.0566,-0.3328 5.7385,-0.5843 11.4342,-1.9932 17.0068,-3.8641 5.5715,-1.8854 11.0479,-4.2446 16.3055,-7.1243 5.2665,-2.8541 10.3916,-6.0513 15.3158,-9.5849 4.9136,-3.5508 9.6622,-7.3649 14.2458,-11.3847 12.1915,-10.8437 23.4698,-22.7904 32.7399,-35.9509 9.2844,-13.1214 16.3987,-27.7044 19.9597,-42.9839 1.7495,-7.6039 2.5516,-15.4448 2.3667,-23.2381 -0.2222,-7.7898 -1.4319,-15.5293 -3.696,-22.8819 -2.2611,-7.3497 -5.5889,-14.309 -9.9711,-20.4514 -0.4948,-0.8089 -1.149,-1.4911 -1.7181,-2.2401 l -1.7585,-2.2062 c -1.2815,-1.3705 -2.5544,-2.7467 -3.8741,-4.0797 l -2.0945,-1.8923 -1.0477,-0.9451 -1.1157,-0.8711 -2.2246,-1.7495 c -0.7699,-0.5489 -1.5648,-1.0671 -2.3439,-1.6046 -6.262,-4.2741 -13.3547,-7.4231 -20.766,-9.7172 -7.4099,-2.3261 -15.2058,-3.6604 -23.0801,-4.3099 -3.9366,-0.3512 -7.9087,-0.4349 -11.8788,-0.4364 l -2.981,0.073 -1.4904,0.0352 -1.496,0.1 -5.9834,0.3969 c -7.962,0.7705 -15.8726,2.0611 -23.6694,3.8897 -7.7714,1.9381 -15.4115,4.3782 -22.8721,7.2975 -7.4193,3.0251 -14.629,6.5388 -21.5934,10.4883 -6.921,4.0281 -13.5363,8.5509 -19.8486,13.4545 l -4.6282,3.8078 c -0.7854,0.6186 -1.5212,1.2934 -2.2565,1.9687 l -2.2162,2.0138 -2.2181,2.0115 -2.1157,2.116 -2.1127,2.1188 c -0.6926,0.7026 -1.4495,1.4221 -2.0378,2.0964 -3.0978,3.3447 -5.7758,7.0471 -7.6,10.7444 -1.7922,3.6947 -2.6079,7.3467 -1.9692,9.963 0.0183,0.3543 0.1758,0.6578 0.2686,0.9813 l 0.1405,0.4865 0.2379,0.4581 c 0.2639,0.6457 0.6211,1.1971 1.0421,1.7528 0.8743,1.0873 2.0936,2.1272 3.6616,3.0296 1.561,0.9011 3.4093,1.6748 5.4213,2.2668 1.0028,0.306 2.0344,0.5635 3.121,0.7838 l 3.3419,0.6124 c 8.9923,1.3527 18.4375,0.5527 27.7838,-1.5835 9.364,-2.1395 18.6418,-5.5562 27.8073,-9.5619 18.3922,-8.0701 35.9773,-17.9463 51.993,-29.8269 8.0037,-5.9398 15.6071,-12.3822 22.6727,-19.3371 7.0488,-6.9693 13.5383,-14.4644 19.3363,-22.4339 1.5199,-1.9449 2.8175,-4.0386 4.2142,-6.0658 1.4041,-2.0341 2.7029,-4.0923 3.9354,-6.1803 2.4718,-4.1731 4.6854,-8.4534 6.5345,-12.8191 3.6985,-8.7147 5.9224,-17.844 5.5845,-26.6451 -0.1824,-4.4005 -0.9244,-8.6785 -2.4261,-12.7751 -1.4767,-4.105 -3.5754,-8.0452 -6.1647,-11.7129 -5.2205,-7.3204 -12.3644,-13.5052 -20.3988,-18.0396 -8.1465,-4.5722 -17.2397,-7.7199 -26.7452,-9.7756 -9.49,-2.0911 -19.4321,-3.1583 -29.4041,-3.6649 -1.2448,-0.0701 -2.4867,-0.1963 -3.7338,-0.2212 l -3.7422,-0.0545 -7.4843,-0.1149 -7.4839,0.2552 c -2.4943,0.0943 -4.9918,0.1293 -7.4769,0.3988 l -7.4645,0.6392 -1.8662,0.1586 -1.8564,0.2527 -3.713,0.5051 c -2.4717,0.3594 -4.9591,0.6187 -7.4186,1.057 l -7.3696,1.3718 c -1.4777,0.2975 -2.9763,0.4989 -4.4408,0.8686 l -4.4125,1.0281 -4.4199,1.0154 c -0.7356,0.1741 -1.4781,0.3227 -2.209,0.5164 l -2.1854,0.61 -8.755,2.4129 c -2.8898,0.8985 -5.7589,1.8644 -8.6426,2.7838 -1.432,0.4871 -2.8999,0.8771 -4.3032,1.4399 l -4.2446,1.5934 -4.2451,1.5857 c -0.7047,0.2701 -1.4211,0.5126 -2.1161,0.8046 l -2.0774,0.8924 c -2.7732,1.1864 -5.5416,2.3708 -8.3036,3.5525 -2.7212,1.2707 -5.4016,2.6144 -8.0986,3.9117 -1.2828,0.6373 -2.568,1.2061 -3.7792,1.8464 -1.2101,0.6436 -2.3929,1.2727 -3.5488,1.8875 -2.3195,1.2194 -4.547,2.3617 -6.6869,3.4316 -4.1411,2.3605 -7.9865,4.3507 -11.4434,6.1808 -3.3884,1.9286 -6.4797,3.5653 -9.2968,4.9441 -2.7831,1.4225 -5.1942,2.7143 -7.4235,3.6854 -6.4526,2.8823 -7.7111,1.5114 -3.9913,-3.4361 1.8866,-2.433 4.8687,-5.9523 9.4032,-9.7658 1.1168,-0.9754 2.3104,-1.9957 3.5796,-3.0588 0.6372,-0.5287 1.2908,-1.071 1.9602,-1.6265 0.679,-0.5428 1.407,-1.0511 2.1377,-1.593 1.479,-1.0613 3.0248,-2.1706 4.6357,-3.3267 0.8126,-0.5696 1.6417,-1.1508 2.4871,-1.7433 0.4244,-0.2941 0.8529,-0.5911 1.2854,-0.8909 0.4459,-0.2779 0.896,-0.5585 1.3503,-0.8416 18.2832,-11.6619 40.1204,-21.5887 61.7749,-27.4975 l 4.6643,-1.3004 2.3314,-0.6498 2.3591,-0.5429 9.4363,-2.1535 c 3.1611,-0.6382 6.3473,-1.1542 9.5181,-1.7364 1.5905,-0.2627 3.1661,-0.6123 4.7678,-0.8031 l 4.7964,-0.6207 4.7948,-0.6199 c 0.7998,-0.0968 1.5963,-0.2208 2.3986,-0.2953 l 2.4099,-0.1938 9.6362,-0.7736 c 6.4418,-0.192 12.8799,-0.5684 19.3243,-0.3132 6.4473,-0.0222 12.871,0.586 19.2987,1.0014 6.4159,0.6197 12.8551,1.4648 19.2731,2.743 12.8083,2.5385 25.6478,6.7498 37.1985,13.9485 5.7343,3.645 11.0823,7.9352 15.7493,12.9688 1.201,1.2216 2.2719,2.5763 3.3936,3.8779 1.0433,1.3747 2.1371,2.7073 3.0884,4.1595 1.9944,2.8288 3.7211,5.8719 5.2266,9.0322 1.5463,3.144 2.6865,6.503 3.645,9.9044 l 0.6234,2.5848 c 0.2152,0.8608 0.3173,1.7383 0.478,2.6077 0.339,1.7395 0.4847,3.4942 0.6455,5.2488 0.5668,7.0308 -0.2502,14.0089 -1.7679,20.6649 -3.2112,13.3032 -9.3513,25.3231 -16.564,36.17 -7.1477,10.904 -15.4287,21.0304 -24.5275,30.3076 -10.0723,10.2144 -21.351,19.5883 -33.2406,27.8468 -11.9285,8.2022 -24.4944,15.2284 -37.0723,20.9604 -10.0343,4.5106 -20.3156,8.7581 -31.2288,11.888 -10.8715,3.1117 -22.4359,5.1224 -34.2865,4.4862 -2.9545,-0.1559 -5.9152,-0.4889 -8.8538,-0.9959 -1.4774,-0.2985 -2.9108,-0.5116 -4.4213,-0.8917 -1.4999,-0.368 -3.0021,-0.7869 -4.5059,-1.3136 -3,-1.0372 -6.0283,-2.4021 -8.9138,-4.3919 -2.8729,-1.9561 -5.6195,-4.6298 -7.5741,-7.9442 -1.9152,-3.2729 -3.0625,-7.0749 -3.2456,-10.7947 -0.2057,-3.7224 0.426,-7.2502 1.4316,-10.4315 1.0122,-3.1951 2.4359,-6.0476 4.0021,-8.7259 1.5823,-2.6661 3.3265,-5.1565 5.2257,-7.4649 1.8833,-2.3202 3.9551,-4.5215 5.9216,-6.4365 1.996,-1.9785 3.9398,-4.0131 6.0627,-5.855 2.0953,-1.8703 4.1254,-3.8182 6.3357,-5.5522 2.1879,-1.7587 4.2994,-3.6173 6.5909,-5.2404 8.9506,-6.7756 18.5343,-12.6967 28.5765,-17.6811 20.079,-9.9673 42.0239,-16.199 64.3683,-17.9824 16.571,-1.3161 33.5996,-0.2993 49.9878,4.4059 8.1788,2.3634 16.1543,5.7818 23.5498,10.3189 7.42,4.4938 14.0947,10.3719 19.6018,17.1868 5.5015,6.8137 9.7557,14.5336 12.7728,22.6236 3.0223,8.0971 4.8335,16.5646 5.574,25.0777 0.7358,8.5165 0.42,17.0929 -0.937,25.5032 -0.4012,2.0919 -0.7374,4.1964 -1.2031,6.2747 -0.5277,2.0609 -0.9697,4.1606 -1.5786,6.1853 -1.1853,4.0587 -2.541,8.0614 -4.1249,11.9617 -5.6014,13.9494 -13.5701,26.7128 -22.788,38.2199 -9.2455,11.5324 -19.6083,21.8972 -30.7263,31.4421 -11.1493,9.5213 -23.3812,18.0644 -36.9586,24.3927 -6.7827,3.1505 -13.9076,5.7156 -21.3025,7.4053 -7.3859,1.6911 -15.0525,2.506 -22.6992,2.1284 -3.8114,-0.1404 -8.0355,-0.5469 -12.365,-2.4288 -2.1278,-0.9512 -4.312,-2.3363 -5.9867,-4.1958 -0.921,-0.8391 -1.5959,-1.9434 -2.3328,-2.9622 -0.316,-0.5431 -0.5909,-1.1113 -0.8751,-1.6729 l -0.4104,-0.8488 -0.3014,-0.8749 c -0.8936,-2.3438 -1.0929,-4.7234 -1.1406,-7.0042 0.0573,-1.1175 0.0667,-2.264 0.2616,-3.3282 0.0828,-0.5386 0.1506,-1.0863 0.2537,-1.6156 l 0.3657,-1.5597 c 1.0262,-4.1406 2.8184,-7.8407 5.0175,-11.2644 1.0857,-1.7166 2.3668,-3.3339 3.7047,-4.8755 1.3187,-1.3893 2.5948,-2.825 4.0031,-4.1155 2.738,-2.6691 5.6937,-5.0781 8.7538,-7.299 6.1202,-4.4607 12.7292,-8.0492 19.4816,-11.0984 3.3826,-1.516 6.8119,-2.8759 10.2589,-4.1553 3.4557,-1.2421 6.9272,-2.4134 10.416,-3.4756 7.0355,-2.1604 14.246,-3.8531 21.5781,-4.9431 7.3317,-1.0829 14.8068,-1.5747 22.3315,-1.1337 7.5093,0.4476 15.1106,1.8456 22.3046,4.7614 5.7406,2.2882 11.0973,5.6585 15.6106,9.8632 4.4653,4.2341 8.1506,9.2788 10.6458,14.7172 2.5369,5.4248 4.108,11.1173 4.9653,16.7607 0.8289,5.6532 0.9949,11.2624 0.7307,16.7387 -0.2596,5.4668 -0.9844,10.8587 -1.9453,16.007 -0.944,5.1701 -2.0535,10.2134 -3.2153,15.1633 -2.3292,9.8984 -4.8701,19.4257 -7.1302,28.7488 -2.0742,8.5678 -3.6471,12.557 -4.6774,11.7796 -0.986,-0.7614 -1.3982,-6.3869 -0.0155,-16.6372 1.9203,-14.4781 4.7001,-29.0841 6.187,-43.5103 0.3466,-3.5594 0.5566,-7.0777 0.5983,-10.5982 0.0167,-3.512 -0.1521,-6.9961 -0.5259,-10.4166 -0.3567,-3.426 -1.011,-6.7613 -1.8933,-9.9683 -0.8989,-3.1976 -2.0067,-6.2951 -3.5037,-9.1126 -1.2334,-2.3097 -2.5737,-4.5498 -4.2229,-6.5304 -1.587,-2.0311 -3.4132,-3.8985 -5.4084,-5.545 -4.0037,-3.2928 -8.7462,-5.7723 -13.9496,-7.44 -5.1974,-1.6872 -10.8456,-2.518 -16.5969,-2.7634 -5.7585,-0.2536 -11.6465,0.163 -17.4899,0.989 -0.0542,0.0852 -0.1057,0.1644 -0.1755,0.254 z"
       fill="#fec018" id="path202" />
    <path
       d="m 402.3553,434.6157 c -2.2809,1.546 -4.6062,3.0205 -6.8959,4.521 -1.2101,0.8008 -2.4524,1.566 -3.4985,2.5536 -4.2584,4.0034 -8.5474,8.0233 -13.1034,11.7371 -3.0327,2.4721 -7.4952,2.0176 -9.9673,-1.0151 -0.0635,-0.0778 -0.1249,-0.1565 -0.1844,-0.2361 l -0.5669,-0.7648 c -1.0402,-1.4032 -2.0762,-2.8233 -3.1022,-4.2729 -5.2986,-7.4892 -10.4215,-15.2397 -15.2571,-23.5134 -0.7294,-1.2614 -0.9825,-2.8178 -1.1862,-4.373 -0.2003,-1.4764 1.0574,-3.1972 3.001,-4.784 2.8433,-2.3158 6.6432,-3.3418 8.2291,-2.2748 1.0463,0.6961 1.6215,1.7453 2.0265,2.8655 1.8452,5.1535 5.0237,9.7401 9.1096,13.6721 1.1355,1.0875 2.4989,2.0958 2.9097,3.6193 1.1696,4.3099 4.0939,7.5126 6.236,11.3186 l -9.5835,-1.8024 c 0.4515,-0.2853 0.9114,-0.5578 1.3839,-0.8132 3.0936,-1.6716 5.7679,-3.95 8.6654,-5.9194 5.1659,-3.5218 10.2991,-7.1514 15.2333,-11.064 1.9688,-1.5615 4.4458,-2.369 8.048,-1.7669 1.6663,0.287 3.97,2.6678 3.6606,4.0158 -0.4282,1.9122 -1.2065,3.6131 -2.1802,5.1069 -0.7954,1.2354 -2.0571,2.0351 -3.1198,3.0163 0.048,0.0587 0.0925,0.1131 0.1422,0.174 z"
       fill="#fec018" id="path204" />
  </g>
</svg>
