<?xml version="1.0" encoding="UTF-8" standalone="no"?>
<svg
   id="Layer_1"
   viewBox="0 0 500 500"
   version="1.1"
   sodipodi:docname="arrow, curvy, curve, loop, swirl, twirl, doodle, up, 3.svg"
   inkscape:version="1.2.1 (9c6d41e, 2022-07-14)"
   xmlns:inkscape="http://www.inkscape.org/namespaces/inkscape"
   xmlns:sodipodi="http://sodipodi.sourceforge.net/DTD/sodipodi-0.dtd"
   xmlns="http://www.w3.org/2000/svg"
   xmlns:svg="http://www.w3.org/2000/svg">
  <defs
     id="defs24" />
  <sodipodi:namedview
     id="namedview22"
     pagecolor="#ffffff"
     bordercolor="#000000"
     borderopacity="0.25"
     inkscape:showpageshadow="2"
     inkscape:pageopacity="0.0"
     inkscape:pagecheckerboard="0"
     inkscape:deskcolor="#d1d1d1"
     showgrid="false"
     inkscape:zoom="1.8065249"
     inkscape:cx="315.52292"
     inkscape:cy="246.32929"
     inkscape:window-width="1512"
     inkscape:window-height="916"
     inkscape:window-x="0"
     inkscape:window-y="38"
     inkscape:window-maximized="0"
     inkscape:current-layer="Layer_1" />
  <g
     id="g136"
     transform="rotate(90,248.9462,243.33198)">
    <path
       d="m 203.9659,444.5319 c -11.5513,-24.666 -16.8936,-52.9061 -12.2371,-79.9467 4.0193,-23.3402 15.4845,-45.5526 33.3507,-61.2803 4.6611,-4.1032 9.7576,-7.8392 15.2841,-10.6943 6.2803,-3.2445 13.0127,-4.6872 20.0735,-4.1363 12.2291,0.9541 24.1214,6.8205 32.9935,15.1679 8.2393,7.7521 17.5525,20.5333 12.911,32.3921 -4.1128,10.5082 -16.4449,15.6535 -26.4521,18.613 -25.6318,7.5803 -53.2899,3.9258 -77.9587,-5.3925 -12.2629,-4.6322 -24.9244,-10.523 -34.7202,-19.401 -9.7485,-8.8352 -16.7443,-20.9385 -21.6352,-33.0475 -2.5496,-6.3124 -4.4416,-12.9868 -4.6756,-19.8234 -0.1976,-5.7739 0.7693,-11.4784 2.6392,-16.9354 3.805,-11.1046 11.3215,-20.7529 20.278,-28.2091 20.4661,-17.038 48.1677,-21.9105 73.4982,-27.0225 25.5456,-5.1554 51.9924,-11.2566 72.174,-28.8022 8.6977,-7.5616 15.804,-17.0692 19.6591,-27.9895 4.7037,-13.3241 3.6335,-27.749 0.727,-41.3352 -1.4739,-6.8896 -3.4303,-13.6636 -5.4161,-20.4196 -0.9055,-3.0805 -5.7322,-1.7694 -4.8214,1.3292 4.202,14.2954 8.5089,29.0543 7.6533,44.1163 -0.7226,12.7204 -5.9657,24.4398 -14.3968,33.9171 -18.1941,20.4517 -45.2818,27.8214 -71.1248,33.1821 -26.7286,5.5444 -55.4928,9.8948 -77.9363,26.6928 -9.7553,7.3015 -18.109,16.8563 -23.0725,28.058 -5.3258,12.0192 -6.2094,24.9089 -2.4768,37.5375 2.0292,6.8655 5.0792,13.4436 8.4704,19.7339 3.2159,5.9651 6.9356,11.6755 11.3576,16.8216 9.0855,10.5734 21.4379,17.461 34.0579,22.9756 25.1304,10.9815 53.473,16.4219 80.6608,10.9165 11.7513,-2.3796 24.7895,-6.6152 33.0892,-15.7636 4.0179,-4.4288 6.574,-9.9742 6.6367,-16.0139 0.0708,-6.8171 -2.8522,-13.419 -6.5752,-18.9905 -6.9441,-10.3918 -16.9546,-18.4383 -28.4957,-23.1851 -6.4432,-2.6501 -13.4619,-4.2649 -20.4475,-4.2528 -7.1951,0.0125 -14.0223,2.109 -20.3041,5.5377 -21.9446,11.9775 -37.751,34.2714 -45.5957,57.6164 -8.7974,26.1801 -7.4982,54.9793 0.8373,81.0992 2.1216,6.6481 4.7141,13.1394 7.6731,19.458 1.3636,2.9117 5.6753,0.376 4.3174,-2.5236 v 0 z"
       fill="#fec018" id="path9" />
    <path
       d="m 299.2285,110.805 c 3.9504,-17.4849 6.0607,-35.3982 6.2181,-53.3247 0.0447,-5.0937 -0.0726,-10.1871 -0.338,-15.274 -1.4226,0.5893 -2.8452,1.1785 -4.2678,1.7678 13.0591,13.5989 27.5228,25.8391 43.0812,36.4888 4.3949,3.0083 8.8798,5.8826 13.4424,8.6297 2.7636,1.6639 5.2801,-2.6577 2.5236,-4.3174 -15.8588,-9.5484 -30.7146,-20.6947 -44.2832,-33.2889 -3.8493,-3.5729 -7.5909,-7.2598 -11.2285,-11.0478 -1.4534,-1.5135 -4.3814,-0.4102 -4.2678,1.7678 0.915,17.5365 0.0155,35.1792 -2.8221,52.5124 -0.8099,4.9472 -1.7746,9.8674 -2.8794,14.7571 -0.708,3.1335 4.1114,4.4715 4.8214,1.3292 v 0 z"
       fill="#fec018" id="path11" />
    <path
       d="m 305.3098,183.5876 c -2.8872,2.0903 -5.9236,3.9329 -8.9971,5.6902 -3.1023,1.6829 -6.2791,3.3101 -9.4941,4.6626 -6.4146,2.8113 -13.012,4.9905 -19.6245,6.8469 -13.2449,3.6863 -26.5667,5.9429 -39.6135,8.4927 -13.7894,2.71 -27.5015,5.7729 -40.0526,11.1624 -8.3296,3.5864 -16.2548,8.1138 -22.951,13.8396 -6.6898,5.7844 -12.3253,12.8047 -16.1328,20.5959 -3.8612,7.7764 -5.545,16.3816 -4.6821,24.7358 0.9,8.429 4.3063,16.7622 8.4961,24.8464 4.1747,8.0718 9.1113,15.603 15.3097,21.6135 6.1586,5.988 13.8948,10.531 22.1306,14.4773 16.4789,7.8877 34.2783,13.1118 52.2754,14.4829 1.3831,0.1516 2.7682,0.1692 4.1526,0.2212 1.3838,0.0283 2.7704,0.1438 4.1515,0.104 l 4.1443,-0.0742 c 1.3848,0.0151 2.7512,-0.1741 4.1277,-0.2483 2.759,-0.1287 5.4712,-0.5759 8.1982,-0.9185 1.3579,-0.2012 2.6938,-0.5107 4.042,-0.7581 l 2.0186,-0.3909 c 0.6697,-0.1421 1.325,-0.3394 1.9883,-0.5056 l 3.97,-1.0344 3.8853,-1.2942 c 0.6431,-0.2183 1.3059,-0.4211 1.9333,-0.6506 0.6116,-0.2434 1.2322,-0.4702 1.8372,-0.7244 1.2114,-0.5071 2.3994,-1.0508 3.5571,-1.6331 4.6064,-2.3291 8.7446,-5.3882 11.283,-9.002 2.5457,-3.626 3.3872,-7.5615 2.4746,-11.9695 -0.9121,-4.4165 -3.3923,-8.9792 -6.5649,-13.1565 -6.2859,-8.345 -15.1321,-14.8667 -24.9868,-18.3743 -4.9282,-1.7307 -10.1155,-2.8237 -15.0833,-2.8115 -2.4875,0.007 -4.908,0.2727 -7.2395,0.8408 -2.3473,0.5811 -4.6873,1.4617 -6.9946,2.5791 -2.3065,1.1262 -4.5803,2.4744 -6.8207,3.9783 -1.1299,0.7415 -2.2048,1.5862 -3.3046,2.385 l -1.6436,1.2102 -1.5721,1.3062 c -4.2102,3.4553 -8.1425,7.2849 -11.6514,11.4951 -3.5275,4.1914 -6.7124,8.6846 -9.5347,13.4067 -2.8313,4.7197 -5.2018,9.717 -7.2438,14.8359 -4.1166,10.2522 -6.464,21.1331 -7.2885,32.186 -0.969,13.3345 -0.0143,27.0259 2.7971,40.1394 1.3245,6.2827 2.5778,11.4541 3.4934,15.772 0.2321,1.0786 0.4315,2.1084 0.6058,3.0894 0.2039,0.9695 0.3772,1.8923 0.5221,2.7703 0.1464,0.8774 0.2587,1.7124 0.3552,2.5 0.1143,0.78 0.2004,1.5176 0.2609,2.2146 0.3517,4.0613 -0.8888,4.7007 -3.3274,2.0706 -0.6046,-0.6589 -1.3036,-1.5127 -2.0327,-2.5813 -0.7122,-1.0759 -1.4851,-2.3538 -2.3107,-3.8274 -0.8098,-1.48 -1.6051,-3.1829 -2.4719,-5.0632 -0.8021,-1.9036 -1.6588,-3.9941 -2.4493,-6.2966 -4.0906,-11.6304 -6.4841,-25.1084 -6.7203,-37.9333 -0.303,-14.7449 1.8065,-29.6294 6.6628,-43.6052 4.8252,-13.9602 12.2195,-27.0603 22.0132,-38.2141 4.8943,-5.5713 10.3904,-10.6436 16.4156,-15.0337 2.9689,-2.2341 6.1639,-4.2703 9.5941,-6.0613 3.4316,-1.7764 7.1428,-3.2583 11.101,-4.1506 3.9641,-0.8999 8.0046,-1.1406 11.9387,-0.9211 3.939,0.2285 7.79,0.8821 11.5046,1.9045 7.4602,1.9954 14.5266,5.3472 20.8372,9.7952 6.9675,4.9246 13.1516,11.2607 17.7781,18.7896 2.302,3.8086 4.2288,8.0613 5.123,12.8215 0.4438,2.3704 0.6123,4.8596 0.4016,7.354 -0.0991,1.2476 -0.3088,2.4902 -0.614,3.6941 -0.2402,1.2244 -0.7036,2.3735 -1.1077,3.5308 -1.4639,3.6384 -3.7151,6.772 -6.2292,9.3738 -2.5276,2.6086 -5.3359,4.7241 -8.2388,6.5127 -2.9082,1.7864 -5.9224,3.249 -8.9937,4.4834 -0.7678,0.3098 -1.5444,0.5874 -2.3162,0.8813 l -2.2961,0.7439 c -1.533,0.4797 -3.0525,1.0068 -4.5957,1.4446 -6.1934,1.7024 -12.5071,2.8462 -18.8574,3.5344 -6.3574,0.5466 -12.7351,0.7185 -19.0742,0.3452 -12.6698,-0.7769 -25.1519,-3.2764 -37.089,-7.2322 l -2.2439,-0.7271 -2.2139,-0.8074 -4.416,-1.6433 c -2.8951,-1.2119 -5.8196,-2.3572 -8.6454,-3.718 -5.6962,-2.5818 -11.2915,-5.4944 -16.6807,-9.012 -3.9889,-2.6157 -7.8502,-5.5774 -11.3595,-8.9866 -3.5133,-3.3933 -6.6042,-7.1387 -9.348,-11.0537 -2.755,-3.9131 -5.1594,-8.0027 -7.3411,-12.1567 -2.17,-4.1448 -4.1859,-8.3845 -5.9036,-12.8557 -1.7108,-4.4612 -3.1056,-9.1394 -3.8933,-14.0137 -0.3746,-2.4353 -0.6757,-4.9143 -0.641,-7.4163 -0.011,-1.2478 -0.067,-2.4978 0.0599,-3.7378 0.1113,-1.2385 0.1182,-2.4929 0.327,-3.7166 0.5919,-4.9399 1.9486,-9.7358 3.8165,-14.2581 1.8672,-4.5278 4.2502,-8.7949 7.0096,-12.7625 4.9598,-7.0513 11.072,-13.1809 17.9814,-18.2056 3.4478,-2.5508 7.0623,-4.7112 10.7698,-6.7229 3.7017,-2.0127 7.5194,-3.7627 11.3892,-5.3225 15.5083,-6.2661 31.7059,-9.4788 47.5496,-12.5574 15.8387,-3.0801 31.569,-6.1135 46.201,-11.9067 7.3115,-2.8828 14.2527,-6.4517 20.5879,-10.9692 3.1875,-2.2192 6.1714,-4.7065 8.9646,-7.3701 1.4221,-1.311 2.7144,-2.7383 4.0295,-4.1465 1.231,-1.4736 2.5088,-2.9175 3.6094,-4.4858 7.4358,-9.7913 11.0608,-21.4321 11.3201,-33.0398 0.2307,-5.7998 -0.22,-11.5647 -0.9202,-17.1868 -0.6987,-5.6262 -1.6436,-11.1238 -2.5776,-16.4707 -0.8638,-4.9187 -0.697,-7.3916 0.1987,-7.2749 0.8813,0.1252 2.499,2.8159 4.3301,8.3672 2.5728,7.8574 4.9124,16.1797 6.0254,25.0447 0.5562,4.4248 0.7983,8.9792 0.5615,13.5911 -0.2383,4.6089 -1.0012,9.2705 -2.3455,13.7869 -0.4771,1.8845 -1.2402,3.6694 -1.9031,5.5007 -0.3765,0.8948 -0.7961,1.7705 -1.1982,2.6565 l -0.6133,1.3254 -0.6909,1.282 -1.408,2.5549 -1.5642,2.4541 c -0.5083,0.8303 -1.0725,1.6165 -1.6514,2.3918 -0.5767,0.7764 -1.1331,1.5728 -1.7324,2.3298 -4.8213,6.0447 -10.4819,11.3118 -16.6099,15.7297 -5e-4,0.0708 -0.002,0.1372 -0.01,0.2153 z"
       fill="#fec018" id="path13" />
    <path
       d="m 256.165,277.5186 c 7.6841,-0.0994 15.075,1.5044 21.9495,4.1697 6.8501,2.6887 13.2644,6.418 18.9424,11.0825 5.6748,4.6772 10.5798,10.2339 14.4954,16.5203 1.9546,3.1804 3.6543,6.6206 4.834,10.3804 1.1738,3.7529 1.8093,7.8435 1.4551,12.051 -0.3474,4.1953 -1.6968,8.2471 -3.7285,11.7705 -1.0125,1.7668 -2.1807,3.4211 -3.4795,4.939 -1.3152,1.5122 -2.6765,2.8582 -4.137,4.1299 -5.8452,5.0769 -12.676,8.2612 -19.4658,10.5488 -6.8413,2.2756 -13.6792,3.6753 -20.7075,4.6079 -7.0051,0.8965 -14.0698,1.136 -21.0811,0.8018 -14.8822,-0.7166 -29.502,-3.9871 -43.3801,-8.9658 -6.9524,-2.5134 -13.6968,-5.3833 -20.3107,-8.7231 -6.605,-3.3579 -13.0715,-7.2854 -18.9347,-12.1724 -1.9338,-1.6543 -3.8469,-3.3496 -5.6111,-5.2188 -0.9066,-0.9043 -1.7434,-1.8931 -2.6014,-2.8413 -0.8254,-0.9607 -1.6245,-1.9402 -2.4061,-2.9314 -3.1127,-3.9746 -5.8546,-8.1819 -8.3077,-12.5044 -2.4283,-4.3159 -4.6499,-8.6831 -6.6246,-13.2961 -1.9561,-4.6052 -3.6191,-9.3921 -4.7074,-14.5076 -2.1417,-10.1624 -1.453,-20.9888 1.942,-30.8047 3.3617,-9.8481 9.1455,-18.603 16.1727,-25.9243 7.0245,-7.3655 15.4329,-13.2148 24.2825,-17.8801 8.9198,-4.5452 18.2812,-7.9285 27.6979,-10.5244 18.842,-5.2834 37.8735,-7.8726 55.866,-12.7366 4.4971,-1.2183 8.948,-2.5354 13.2715,-4.0994 2.1873,-0.7332 4.292,-1.6206 6.4282,-2.4475 2.0757,-0.9326 4.2031,-1.7798 6.2087,-2.8252 8.1599,-3.9478 15.6165,-9.0408 21.8579,-15.3013 6.2803,-6.2039 10.9885,-13.6589 13.5303,-21.863 0.6477,-2.0403 1.1355,-4.1262 1.4846,-6.2322 0.3682,-2.1155 0.5737,-4.207 0.6377,-6.395 0.1689,-4.3757 -0.1262,-8.8164 -0.7722,-13.2754 -1.2556,-8.9292 -3.8467,-17.8748 -6.5417,-26.9983 l -0.2568,-0.8726 c -0.2217,-0.8833 -0.3884,-1.7507 -0.3113,-2.8394 0.0125,-0.5059 0.1157,-1.0466 0.2634,-1.5835 0.1338,-0.5383 0.3362,-1.0435 0.5981,-1.5303 0.2498,-0.5024 0.5437,-0.9465 0.8789,-1.3411 0.3325,-0.4189 0.689,-0.7822 1.0637,-1.0828 1.5173,-1.2561 3.2036,-1.8552 4.9927,-1.9709 1.7676,-0.1104 3.8325,0.3704 5.5369,1.72 0.4065,0.3396 0.8044,0.7134 1.1455,1.1072 0.3142,0.396 0.6062,0.8196 0.865,1.2549 0.238,0.4231 0.3984,0.8293 0.5667,1.261 l 0.116,0.3215 0.0708,0.2163 0.0635,0.2153 0.509,1.7246 1.0107,3.4675 c 1.3384,4.6401 2.6196,9.3613 3.7009,14.1877 2.1406,9.6462 3.5193,19.7812 2.6328,30.165 -0.4143,5.1768 -1.4897,10.3816 -3.2139,15.4036 -1.7593,4.9585 -4.0864,9.6875 -6.9214,14.0452 -3.4724,5.3818 -7.6335,10.2441 -12.2507,14.5571 -4.6587,4.2603 -9.6643,8.0674 -14.9927,11.3259 -10.6758,6.4976 -22.2729,10.8906 -33.8789,14.2261 -23.2526,6.6926 -46.8657,9.0562 -68.3459,16.2434 -5.3585,1.7876 -10.5659,3.8635 -15.5121,6.3418 -4.9468,2.4753 -9.5867,5.4138 -13.8313,8.7915 -8.527,6.7017 -15.5233,15.4119 -19.2321,25.1802 -1.8602,4.885 -2.8748,10.0247 -2.8485,15.0957 0.0199,5.0427 1.1375,10.2031 2.9236,15.3201 0.4479,1.2812 0.9302,2.5532 1.4543,3.8367 0.5291,1.2991 1.0803,2.5859 1.6489,3.8633 1.1459,2.5493 2.3789,5.0483 3.7063,7.4805 2.6482,4.8667 5.6931,9.4634 9.1886,13.5728 1.7455,2.0564 3.5986,3.9897 5.5656,5.7715 1.9753,1.7871 4.1072,3.4426 6.3353,4.9993 4.4622,3.1111 9.337,5.7939 14.4382,8.1636 2.5492,1.1885 5.1528,2.3057 7.7964,3.3701 1.3226,0.531 2.6559,1.0488 3.9957,1.5586 l 3.9963,1.4441 c 5.3488,1.8535 10.7886,3.4153 16.2881,4.6431 5.4994,1.2231 11.0583,2.1313 16.637,2.6184 5.5778,0.4771 11.1696,0.5625 16.713,0.2031 5.5427,-0.3584 11.0366,-1.1633 16.4033,-2.4473 5.3357,-1.3191 10.7212,-3.0417 15.345,-5.3616 4.644,-2.3135 8.5776,-5.3679 10.624,-9.0137 1.0549,-1.8564 1.5889,-3.7041 1.6912,-5.7131 0.0964,-2.0042 -0.2888,-4.1699 -1.0762,-6.3689 -1.5854,-4.4131 -4.6326,-8.8154 -8.2363,-12.7153 -3.6343,-3.9529 -7.7307,-7.2832 -12.3062,-9.9766 -4.552,-2.6792 -9.4949,-4.6697 -14.5618,-5.7507 -2.5149,-0.5325 -5.1399,-0.8674 -7.5769,-0.8989 -2.4702,-0.0144 -4.9255,0.2356 -7.3213,0.811 -2.3953,0.5703 -4.7395,1.4187 -6.988,2.5496 -2.3176,1.1589 -4.647,2.5608 -6.8702,4.0835 -4.4669,3.0522 -8.6819,6.7354 -12.531,10.6606 -2.3492,2.3589 -4.5074,4.9114 -6.6179,7.5039 -2.0316,2.6572 -4.022,5.3582 -5.7974,8.2107 -3.5891,5.6733 -6.6963,11.6919 -9.1198,17.988 -2.4448,6.2859 -4.3147,12.7988 -5.5768,19.4126 -1.2365,6.6208 -1.851,13.355 -1.8953,20.0774 -0.0554,6.4397 0.3428,12.3335 0.949,17.6877 0.6184,5.3513 1.3251,10.1924 2.1812,14.5244 1.6189,8.688 3.3256,15.449 4.5575,20.719 1.8862,7.6414 0.7037,8.3098 -3.1682,2.4978 -1.825,-2.9468 -4.3362,-7.5156 -6.7513,-13.8557 -2.4442,-6.3198 -4.8721,-14.395 -6.3983,-24.1475 -1.9233,-12.3198 -2.2034,-25.6167 -0.007,-38.752 2.1288,-13.1362 6.7062,-25.9622 13.1594,-37.3159 7.3892,-13.0979 17.5702,-24.6567 29.9105,-33.4521 3.1434,-2.1914 6.3754,-4.1689 9.9728,-5.887 3.631,-1.7083 7.541,-2.9375 11.5552,-3.5544 3.9951,-0.6311 8.1528,-0.6157 12.0476,-0.1045 3.9155,0.4932 7.7361,1.4473 11.4119,2.7361 7.3599,2.5798 14.1001,6.5952 19.9753,11.6196 2.9524,2.5325 5.5854,5.2749 8.0569,8.2671 2.4429,3.0007 4.6895,6.2405 6.4514,9.9001 1.7458,3.6475 3.043,7.7568 3.1997,12.1924 0.2324,4.4248 -1.1196,9.0662 -3.3604,12.7632 -2.2244,3.8064 -5.3762,6.7546 -8.6523,9.1201 -3.3013,2.3745 -6.8247,4.1086 -10.3589,5.5962 -14.073,5.6274 -29.1582,7.8198 -44.0283,7.2593 -14.8833,-0.5544 -29.4824,-3.7751 -43.3569,-8.6978 -6.9058,-2.4553 -13.6951,-5.2351 -20.3495,-8.655 -6.6243,-3.4272 -13.0892,-7.5249 -18.8141,-12.7556 -5.7297,-5.2354 -10.4451,-11.3342 -14.3918,-17.7615 -1.9749,-3.2178 -3.7596,-6.5273 -5.3792,-9.8992 -1.6136,-3.3894 -3.094,-6.7505 -4.4207,-10.3655 -1.4429,-3.968 -2.6284,-8.1521 -3.3049,-12.5405 -0.6825,-4.3887 -0.7828,-8.9922 -0.25,-13.4443 1.0295,-8.9424 4.3904,-17.4255 9.1049,-24.7981 9.4603,-14.7939 24.115,-25.1643 38.9952,-31.2437 11.9115,-4.9739 24.2421,-7.9373 36.3926,-10.4604 12.171,-2.5095 24.2122,-4.5691 35.9341,-7.4404 11.7087,-2.8445 23.1177,-6.5137 33.4951,-11.959 5.1816,-2.718 10.0854,-5.8804 14.5786,-9.5244 4.5364,-3.5908 8.5647,-7.7307 11.9961,-12.2834 3.4224,-4.5532 6.2056,-9.5393 8.1204,-14.8088 1.8809,-5.2275 2.8633,-10.8003 3.0439,-16.5139 0.1812,-5.7139 -0.3477,-11.5332 -1.3425,-17.3418 -1.0012,-5.8103 -2.4443,-11.6196 -4.0781,-17.4595 l -1.25,-4.3899 -0.6409,-2.2024 -0.323,-1.1035 c -1.7292,0.4778 2.325,-0.7341 1.939,-0.6079 l 0.0645,-0.0139 0.1313,-0.0396 c 0.0884,-0.0317 0.178,-0.0747 0.2666,-0.1292 0.1023,-0.0454 0.1843,-0.0955 0.2534,-0.165 0.0405,-0.0271 0.0176,-0.0366 -0.0564,0.1497 -0.042,0.1328 -0.0732,0.3628 -0.0503,0.4446 0.009,0.0825 0.0181,0.0356 -0.0571,-0.1125 -0.0884,-0.1458 -0.2104,-0.3164 -0.3564,-0.4031 -0.0669,-0.0598 -0.1465,-0.0449 0.1133,-0.0154 0.0625,0.0044 0.1196,5e-4 0.1697,-0.0093 0.0554,-0.0078 0.2146,-0.0073 0.3071,-0.0283 0.1067,-0.0183 0.2065,-0.0469 0.2983,-0.0837 -1.6519,0.4746 2.3313,-0.6877 1.9241,-0.5332 l 0.0203,0.0693 0.0405,0.1389 0.6484,2.2207 c 1.7224,5.938 3.4326,11.9753 4.7493,18.2097 1.3374,6.2192 2.2432,12.6572 2.3948,19.2144 0.0474,3.2749 -0.074,6.5793 -0.5085,9.9346 -0.4331,3.3315 -1.1584,6.6233 -2.1582,9.8223 -2.9658,9.5093 -8.3652,18.2002 -15.2351,25.1387 -6.7148,7.082 -14.8215,12.6323 -23.29,17.0649 -8.5352,4.3376 -17.4739,7.5903 -26.4878,10.1172 -9.0103,2.5798 -18.1089,4.4722 -27.1127,6.2959 -8.9926,1.8191 -17.9362,3.5342 -26.6675,5.7148 -4.3792,1.0601 -8.6779,2.2949 -12.9351,3.6184 -4.2191,1.4006 -8.4199,2.8516 -12.4386,4.6423 -8.1184,3.4282 -15.6373,7.96 -22.3398,13.4263 -6.6361,5.5347 -12.3457,12.1675 -16.4008,19.6387 -1.7933,3.3354 -3.2699,6.8162 -4.3385,10.4097 -1.0382,3.5986 -1.7357,7.2944 -1.9377,11.0261 -0.2065,3.729 -0.0267,7.4863 0.6309,11.1819 0.2911,1.8535 0.7549,3.6802 1.2502,5.4963 0.5161,1.8342 1.136,3.6675 1.8129,5.4805 1.3573,3.6301 2.9786,7.2041 4.7711,10.7317 1.8009,3.553 3.7009,6.9719 5.8163,10.2546 2.1135,3.2705 4.4128,6.4197 6.942,9.2976 2.4969,2.8523 5.2924,5.4705 8.3057,7.8652 6.0616,4.7642 12.9371,8.6406 20.149,11.9944 7.2365,3.3506 14.6654,6.2539 22.2714,8.571 7.6084,2.2966 15.3856,3.989 23.2344,4.9963 7.847,1.0242 15.7759,1.2749 23.6267,0.6785 l 2.9434,-0.2319 2.9268,-0.3657 c 1.9587,-0.1995 3.8845,-0.5935 5.823,-0.9167 3.8875,-0.6985 7.729,-1.6445 11.447,-2.7856 3.718,-1.1523 7.3018,-2.5874 10.6545,-4.3433 3.3093,-1.8042 6.425,-3.9048 8.981,-6.4951 2.6001,-2.5261 4.5754,-5.4961 5.7007,-8.7476 0.5747,-1.6165 0.8948,-3.2974 1.0093,-4.9866 0.0896,-1.6897 -0.0339,-3.4404 -0.3591,-5.1758 -1.3562,-6.9897 -5.7268,-13.7024 -10.802,-19.4124 -5.1638,-5.688 -11.4409,-10.3921 -18.3918,-13.7295 -6.9263,-3.3657 -14.5208,-5.4097 -22.0667,-5.4651 -3.7075,-0.0251 -7.4109,0.5762 -10.9968,1.698 -3.6027,1.1497 -7.0027,2.7341 -10.3611,4.8137 -6.7609,3.9255 -12.8204,9.0413 -18.2703,14.7178 -8.6483,9.1436 -15.4263,19.8359 -20.3683,31.0642 -4.98,11.2368 -7.9249,23.0679 -9.1796,34.8789 -1.2917,11.8145 -0.8319,23.5784 0.8112,34.8887 0.8047,5.6624 1.9524,11.2122 3.3679,16.6211 1.3641,5.4253 3.0657,10.6929 4.9355,15.8208 0.8799,2.3657 1.5883,4.3826 2.2933,6.1589 0.1931,0.4902 0.5995,0.8872 1.0438,1.1721 0.4714,0.248 0.9945,0.3582 1.4722,0.324 0.9686,-0.0466 1.7394,-0.4871 2.3182,-0.9932 0.5848,-0.5164 0.9313,-1.1748 1.1321,-1.7683 0.1886,-0.6086 0.1998,-1.1389 0.2172,-1.5432 -0.0396,-0.7837 0.0234,-1.1221 0.3296,-0.9243 0.1497,0.1099 0.3672,0.365 0.5959,0.8149 0.0944,0.2412 0.189,0.5364 0.2693,0.8838 0.062,0.3479 0.0813,0.7686 0.0574,1.2249 -0.0872,0.9133 -0.4597,1.9814 -1.2434,2.9231 -0.7892,0.916 -1.937,1.8198 -3.8295,2.0417 -0.4565,0.0581 -1.0077,0.0115 -1.532,-0.0767 -0.5452,-0.135 -1.108,-0.3066 -1.61,-0.6304 -0.5415,-0.2998 -0.9443,-0.6853 -1.3453,-1.1167 -0.2178,-0.2217 -0.3225,-0.4194 -0.4817,-0.6453 -0.1326,-0.199 -0.3115,-0.5007 -0.3867,-0.6377 -0.4711,-0.8403 -0.9724,-1.7642 -1.4915,-2.7776 -1.0406,-2.0256 -2.1663,-4.4036 -3.3229,-7.1558 -3.2898,-7.7874 -5.9235,-15.999 -7.9164,-24.4431 -1.9606,-8.4561 -3.1495,-17.1897 -3.5427,-26.0349 -0.391,-8.8462 0.181,-17.8098 1.6464,-26.6724 1.4662,-8.864 4.0776,-17.5962 7.5071,-25.9172 5.7622,-13.6353 14.0977,-26.5283 25.087,-37.1458 5.5054,-5.2815 11.6663,-9.9717 18.3835,-13.7778 6.7504,-3.9551 14.8003,-6.6721 23.0769,-6.887 0.0903,-0.0588 0.1763,-0.1135 0.2903,-0.1743 z"
       fill="#fec018" id="path15" />
    <path
       d="m 340.2893,82.0239 c -3.7334,-2.9778 -7.3726,-6.0564 -10.9709,-9.1714 -1.9023,-1.6592 -3.7859,-3.3513 -5.7695,-4.8992 C 314.8197,61.1735 306.3592,53.9865 298.492,46.153 l 9.8118,-4.2495 0.2314,3.5745 c 0.0808,1.1921 0.1121,2.3862 0.1655,3.5798 0.3201,8.314 0.1443,16.6509 -0.4734,24.9519 -0.6057,8.3032 -1.6785,16.5691 -3.1147,24.7671 -0.4463,2.4722 -1.324,4.8884 -2.2397,7.2231 -0.8733,2.2397 -2.6045,3.427 -4.6011,3.9358 -2.918,0.7324 -5.4341,-1.2546 -5.4165,-4.5352 -0.0195,-2.0894 0.4392,-4.2634 0.9629,-6.311 2.4958,-9.4133 3.5249,-19.1501 3.1733,-28.8579 -0.0928,-2.6814 -0.4114,-5.4631 0.0369,-8.041 1.1213,-6.5229 0.7622,-13.1455 0.4956,-19.7139 l -0.002,-0.0598 c -0.114,-2.8105 2.072,-5.1816 4.8826,-5.2957 1.5093,-0.0613 2.9058,0.5554 3.8801,1.5613 1.2129,1.2629 2.3872,2.5613 3.5576,3.8643 4.1274,4.6416 8.7864,8.802 13.3401,13.0388 8.1299,7.5542 16.6758,14.7073 25.7075,21.2439 3.6121,2.5959 6.6626,5.5671 8.7351,9.4153 0.9426,1.7864 -0.4189,3.866 -2.4541,3.2725 -2.8848,-0.824 -5.7341,-2.0227 -8.4414,-3.4265 -2.2349,-1.1443 -4.2388,-2.7612 -6.325,-4.1924 -0.0383,0.042 -0.0742,0.0811 -0.1147,0.1255 z"
       fill="#fec018" id="path17" />
    <path
       d="m 293.5454,78.0547 c 1.2307,-9.8757 1.8853,-19.8511 1.8596,-29.8579 -0.009,-1.3262 -0.0105,-2.6545 -0.0449,-3.9829 l -0.021,-0.9968 -0.0107,-0.4985 -0.006,-0.2493 c -0.005,-0.2051 -10e-4,-0.5098 0.0134,-0.7598 0.0486,-1.0469 0.386,-2.1655 0.9309,-3.0828 0.5391,-0.948 1.2681,-1.6606 2.0417,-2.2246 1.5618,-1.0815 3.3408,-1.5496 5.2803,-1.3164 0.9636,0.1313 1.9695,0.4517 2.8616,1.0317 0.4563,0.2715 0.8477,0.6201 1.2273,0.9814 l 0.4131,0.4102 2.8511,2.7896 c 9.9939,10.0667 20.9873,19.0535 32.5359,27.2051 5.783,4.0649 11.7161,7.9109 17.7903,11.5149 l 1.1382,0.6768 0.2844,0.1692 0.2004,0.1238 0.4229,0.2891 c 0.2788,0.1987 0.55,0.4097 0.8103,0.6294 0.2664,0.241 0.5342,0.5366 0.7805,0.824 0.5032,0.5535 0.907,1.292 1.241,2.0144 0.2786,0.7339 0.52,1.541 0.5664,2.2847 0.1628,1.5479 -0.1416,2.9321 -0.6694,4.1619 -0.5229,1.2317 -1.355,2.3142 -2.4666,3.2283 -1.0969,0.9128 -2.676,1.5938 -4.3303,1.7375 -1.6848,0.1426 -3.2908,-0.3157 -4.4495,-0.9429 l -0.4119,-0.2212 -0.1462,-0.0918 -0.2922,-0.1836 -0.5842,-0.3672 -9.3411,-5.8972 -3.2607,-2.0696 -3.1863,-2.1809 c -2.1084,-1.4771 -4.2024,-2.9749 -6.272,-4.5066 -4.1389,-3.0635 -8.1919,-6.2444 -12.1526,-9.5371 -7.9216,-6.5852 -15.4746,-13.6177 -22.6123,-21.0522 -2.2832,-2.3743 -2.2092,-6.1499 0.165,-8.4331 0.5474,-0.5266 1.1943,-0.9363 1.8552,-1.2129 l 4.2688,-1.7646 0.1719,-0.071 c 2.9792,-1.2317 6.3931,0.1851 7.6248,3.1643 0.2822,0.6826 0.4243,1.4092 0.4414,2.1057 l 0.2266,10.6133 0.0974,5.3069 c -0.0278,1.7695 -0.0559,3.5393 -0.1194,5.3079 -0.2241,7.0754 -0.7559,14.1384 -1.5649,21.1672 -0.6179,5.4529 -1.8584,10.8752 -3.2231,16.1135 -1.3247,5.0203 -3.417,7.9976 -5.665,9.5913 -1.6345,1.1628 -2.9895,0.834 -3.8347,-0.647 -0.8433,-1.4829 -1.1702,-4.1116 -0.8447,-7.6387 0.4172,-4.4641 1.2034,-9.2605 1.9775,-13.8088 1.2703,-7.5 2.1025,-15.0747 2.4465,-22.6675 0.4434,-7.593 -0.0542,-15.1963 -0.3301,-22.7727 l 6.7478,4.2585 -4.2231,1.875 1.6934,-8.0845 c 3.2158,3.1631 6.5356,6.2161 9.9507,9.1536 4.438,3.8193 9.2815,7.49 13.415,11.3965 3.3088,3.1157 6.7849,6.0627 10.3796,8.8645 1.7996,1.3979 3.626,2.7637 5.4758,4.0979 l 2.7949,1.9744 c 0.9399,0.6462 1.9109,1.2461 2.8662,1.8696 l 5.7603,3.6987 2.8796,1.8496 1.4387,0.9265 0.3594,0.2319 0.1797,0.1162 0.0449,0.0288 c 0.229,-0.3672 -1.9358,3.2209 -1.0242,1.7073 l -0.008,0.0107 -0.0164,0.0222 -0.0625,0.0935 c -0.0786,0.1218 -0.1448,0.3013 -0.1829,0.4348 -0.0332,0.0662 -0.0581,0.1509 -0.0662,0.2515 -0.011,0.2439 0.0107,-0.0469 -0.1931,-0.283 -0.188,-0.2495 -0.3608,-0.2771 -0.1692,-0.2043 0.1675,0.0791 0.5857,0.0464 0.5986,0.0125 -0.0278,0.0117 -0.0393,0.0264 -0.0393,0.0264 -0.0784,0.0459 -0.1418,0.1018 -0.1833,0.1543 -0.0293,0.0417 -0.2051,0.2043 -0.261,0.3098 -0.0393,0.0598 -0.072,0.1206 -0.0991,0.1812 -2.0137,3.3391 -0.5649,0.9214 -1.0173,1.6648 l -0.0117,-0.0073 -0.0237,-0.0149 -0.0469,-0.0293 -0.094,-0.0588 c -2.0103,-1.2483 -3.9988,-2.5293 -5.96,-3.8481 -11.6389,-7.8542 -23.0283,-16.24 -33.4468,-25.6982 -4.688,-4.1689 -8.9939,-8.7283 -13.3984,-13.1714 l -1.6455,-1.6724 -0.8223,-0.8364 -0.4111,-0.418 1.343,-1.3455 c 0.0234,-0.0291 0.0208,-0.0293 0.0115,-0.0134 -0.001,-0.0076 -0.0745,0.1648 -0.0828,0.3247 -0.0127,0.1531 0.0276,0.2771 0.0168,0.2397 -0.005,-0.0269 -0.0781,-0.1782 -0.2134,-0.3081 -0.1182,-0.1282 -0.25,-0.1809 -0.2344,-0.1729 0.0217,0.0063 0.0378,0.0081 0.0479,0.0076 0.0325,0.0056 0.1021,0.0139 0.1426,0.0105 l 0.033,-0.0024 0.0159,-0.0022 0.008,-0.001 c -0.3577,0.0151 3.1482,-0.156 1.6641,-0.074 l 0.004,0.1467 0.009,0.2935 0.0342,1.1736 0.0601,2.3469 c 0.0278,1.5649 0.0527,3.1294 0.0496,4.6943 0.0173,12.5168 -0.8669,25.0259 -2.7114,37.386 -0.3669,2.4658 -0.813,4.8838 -1.3352,7.2412 -0.5955,2.343 -1.2356,4.6309 -1.9287,6.8503 -0.6929,2.2195 -1.439,4.3704 -2.2454,6.4387 l -0.3052,0.7717 -0.155,0.3831 c -0.0352,0.0854 -0.0645,0.145 -0.1047,0.2236 -0.1233,0.2881 -0.2146,0.6162 -0.1064,0.9668 0.1812,0.7026 0.9858,1.4712 2.0205,1.5635 0.9761,0.1462 1.8352,-0.3696 2.4463,-0.7554 0.5559,-0.3906 1.0613,-0.6443 1.4277,-0.4336 0.1819,0.1047 0.3301,0.3279 0.4058,0.7007 0.033,0.188 0.0664,0.4045 0.0376,0.6716 -0.0427,0.2729 -0.1238,0.5886 -0.2554,0.9346 -0.2827,0.6877 -0.9094,1.5344 -1.9192,2.147 -1.0088,0.6064 -2.2898,0.8955 -3.615,0.7595 -1.8391,-0.2207 -3.667,-1.0735 -4.9392,-2.9448 -0.6292,-0.9087 -1.0183,-2.062 -1.1025,-3.1541 -0.0745,-0.5779 -0.009,-1.0459 0.0374,-1.5737 l 0.0471,-0.3669 0.0127,-0.1467 0.0256,-0.2939 c 0.1382,-1.5681 0.2944,-3.1423 0.4668,-4.7192 0.345,-3.1538 0.7544,-6.3174 1.2114,-9.4592 0.5859,-5.1853 1.47,-10.4651 1.9756,-15.7363 -0.0535,-0.0205 -0.103,-0.0398 -0.1628,-0.0627 z"
       fill="#fec018" id="path19" />
  </g>
</svg>
